<svg width="30" height="30" viewBox="0 0 30 30" fill="none" xmlns="http://www.w3.org/2000/svg">
<path d="M15 0C6.70552 0 0 6.70552 0 15C0 23.2945 6.70552 30 15 30C23.2945 30 30 23.2945 30 15C30 6.70552 23.2945 0 15 0ZM15 27.5092C8.10429 27.5092 2.4908 21.8957 2.4908 15C2.4908 8.10429 8.10429 2.4908 15 2.4908C21.8957 2.4908 27.5092 8.10429 27.5092 15C27.5092 21.8957 21.8957 27.5092 15 27.5092Z" fill="#838383"/>
<path d="M21.7669 8.23313C21.2577 7.72393 20.4908 7.72393 19.9816 8.23313L15 13.2147L10.0245 8.23926C9.51534 7.73006 8.74847 7.73006 8.23927 8.23926C7.73007 8.74847 7.73007 9.51534 8.23927 10.0245L13.2147 15L8.23927 19.9755C7.73007 20.4847 7.71166 21.2699 8.23927 21.7607C8.63804 22.1288 9.39264 22.3988 10.0245 21.7607L15 16.7853L19.9755 21.7607C20.7362 22.4785 21.5092 22.0184 21.7607 21.7607C22.2699 21.2515 22.2699 20.4847 21.7607 19.9755L16.7853 15L21.7607 10.0245C22.2761 9.5092 22.2761 8.74233 21.7669 8.23313Z" fill="#838383"/>
</svg>
