<svg width="45" height="26" viewBox="0 0 45 26" fill="none" xmlns="http://www.w3.org/2000/svg">
<path d="M11.5966 20.7934L10.9561 17.0587L13.6695 14.4138C13.9091 14.1803 13.9953 13.831 13.892 13.5129C13.7886 13.1947 13.5135 12.9628 13.1824 12.9146L9.43257 12.3699L7.75563 8.97194C7.60753 8.67197 7.30202 8.48204 6.96751 8.48204C6.633 8.48204 6.32741 8.67197 6.1794 8.97194L4.50245 12.3699L0.752605 12.9146C0.421522 12.9628 0.146513 13.1947 0.0430657 13.5129C-0.0603813 13.831 0.0259271 14.1803 0.265516 14.4138L2.97887 17.0587L2.33832 20.7934C2.28172 21.1231 2.41734 21.4563 2.68795 21.6529C2.84106 21.7642 3.02246 21.8208 3.20466 21.8208C3.34458 21.8208 3.48494 21.7874 3.61353 21.7199L6.96742 19.9566L10.3213 21.7199C10.6174 21.8756 10.9762 21.8496 11.2469 21.6529C11.5176 21.4563 11.6531 21.1231 11.5966 20.7934ZM9.39803 16.1224C9.19088 16.3244 9.09631 16.6152 9.14526 16.9004L9.56283 19.3353L7.3762 18.1857C7.12018 18.0511 6.81423 18.0511 6.55821 18.1857L4.37184 19.3353L4.78941 16.9004C4.83837 16.6153 4.7438 16.3244 4.53664 16.1224L2.76767 14.3981L5.21234 14.043C5.4986 14.0013 5.7461 13.8215 5.87407 13.5621L6.96734 11.3468L8.06061 13.5621C8.18866 13.8215 8.43607 14.0013 8.72233 14.043L11.167 14.3981L9.39803 16.1224Z" fill="#838383"/>
<path d="M44.9569 13.5129C44.8535 13.1947 44.5784 12.9628 44.2474 12.9146L40.4975 12.3699L38.8206 8.97194C38.6725 8.67197 38.367 8.48204 38.0325 8.48204C37.6979 8.48204 37.3923 8.67197 37.2443 8.97194L35.5674 12.3699L31.8175 12.9146C31.4865 12.9628 31.2115 13.1947 31.108 13.5129C31.0046 13.831 31.0909 14.1803 31.3305 14.4138L34.0439 17.0587L33.4034 20.7934C33.3468 21.1231 33.4823 21.4563 33.753 21.6529C34.0237 21.8496 34.3826 21.8754 34.6786 21.7199L38.0325 19.9566L41.3864 21.7199C41.5149 21.7876 41.6554 21.8208 41.7952 21.8208C41.9774 21.8208 42.1588 21.7641 42.3119 21.6529C42.5825 21.4563 42.7182 21.1231 42.6616 20.7934L42.021 17.0587L44.7344 14.4138C44.9741 14.1803 45.0603 13.831 44.9569 13.5129ZM40.4633 16.1225C40.2562 16.3245 40.1616 16.6153 40.2106 16.9005L40.6281 19.3354L38.4415 18.1858C38.3134 18.1184 38.173 18.0849 38.0325 18.0849C37.8921 18.0849 37.7516 18.1185 37.6236 18.1858L35.437 19.3354L35.8545 16.9005C35.9035 16.6154 35.8089 16.3245 35.6018 16.1225L33.8328 14.3982L36.2775 14.043C36.5637 14.0014 36.8112 13.8216 36.9392 13.5622L38.0325 11.3469L39.1257 13.5622C39.2538 13.8216 39.5012 14.0014 39.7875 14.043L42.2321 14.3982L40.4633 16.1225Z" fill="#838383"/>
<path d="M28.856 17.8315L27.8729 12.0996L32.0373 8.04039C32.2768 7.80687 32.3631 7.45759 32.2597 7.13943C32.1563 6.82126 31.8812 6.58932 31.5502 6.54116L25.7952 5.70497L23.2214 0.489901C23.0733 0.189931 22.7678 0 22.4333 0C22.0987 0 21.7932 0.189931 21.6452 0.489901L19.0715 5.70497L13.3164 6.54116C12.9853 6.58932 12.7103 6.82126 12.6069 7.13943C12.5034 7.45759 12.5897 7.80687 12.8293 8.04039L16.9938 12.0996L16.0106 17.8315C15.954 18.1612 16.0895 18.4944 16.3602 18.691C16.6309 18.8877 16.9898 18.9135 17.2858 18.758L22.4333 16.0518L27.5808 18.758C27.7094 18.8257 27.8498 18.8589 27.9896 18.8589C28.1718 18.8589 28.3532 18.8022 28.5063 18.691C28.777 18.4944 28.9125 18.1612 28.856 17.8315ZM26.0622 11.9414L26.8223 16.3735L22.8421 14.2809C22.714 14.2136 22.5736 14.18 22.4331 14.18C22.2928 14.1799 22.1523 14.2136 22.0242 14.2809L18.044 16.3735L18.8042 11.9414C18.8532 11.6563 18.7586 11.3654 18.5514 11.1634L15.3314 8.02475L19.7814 7.37823C20.0676 7.33657 20.3151 7.15674 20.4431 6.89738L22.4332 2.86496L24.4233 6.89738C24.5514 7.15674 24.7988 7.33657 25.085 7.37823L29.5349 8.02475L26.315 11.1634C26.1078 11.3654 26.0132 11.6562 26.0622 11.9414Z" fill="#838383"/>
<path d="M24.4336 23.5668H12.2168C11.7314 23.5668 11.3379 23.9603 11.3379 24.4457C11.3379 24.931 11.7314 25.3246 12.2168 25.3246H24.4336C24.919 25.3246 25.3125 24.931 25.3125 24.4457C25.3125 23.9603 24.919 23.5668 24.4336 23.5668Z" fill="#838383"/>
<path d="M32.7831 23.5668H29.0038C28.5184 23.5668 28.1249 23.9603 28.1249 24.4457C28.1249 24.931 28.5184 25.3246 29.0038 25.3246H32.7831C33.2686 25.3246 33.662 24.931 33.662 24.4457C33.662 23.9603 33.2686 23.5668 32.7831 23.5668Z" fill="#838383"/>
</svg>
